#Comment line ignore any data following # character 
#Hierarchical Translation and Rotation (.htr) file 
[Header]	
#Header keywords are followed by a single value 
FileType HTR		#Single word string
DataType HTRS		#Translation followed by rotation and scale data
FileVersion 1		#integer
NumSegments 84		#integer
NumFrames 2		#integer
DataFrameRate 30		#integer, data frame rate in this file
EulerRotationOrder ZYX
CalibrationUnits mm
RotationUnits Degrees
GlobalAxisofGravity Y
BoneLengthAxis Y
ScaleFactor 1.00
[SegmentNames&Hierarchy]
#CHILD	PARENT
MASTER GLOBAL
root MASTER
chest root
L_mid_tent01 root
R_mid_tent01 root
spine01 root
Bip01_Neck chest
L_humerus chest
R_humerus chest
weapon_bone chest
Bip01_Head Bip01_Neck
eye_left_bone Bip01_Head
eye_right_bone Bip01_Head
L_forearm L_humerus
L_front_hand L_forearm
L_weapon_bone L_forearm
L_front_hand01_01 L_front_hand
L_front_hand02_01 L_front_hand
L_front_hand03_01 L_front_hand
L_front_hand01_02 L_front_hand01_01
L_front_hand02_02 L_front_hand02_01
L_front_hand03_02 L_front_hand03_01
R_forearm R_humerus
R_front_hand R_forearm
R_weapon_bone R_forearm
R_front_hand01_01 R_front_hand
R_front_hand02_01 R_front_hand
R_front_hand03_01 R_front_hand
R_front_hand01_02 R_front_hand01_01
R_front_hand02_02 R_front_hand02_01
R_front_hand03_02 R_front_hand03_01
null_rope01_connect L_mid_tent01
Rope1_Seg01 null_rope01_connect
Rope1_Seg02 Rope1_Seg01
Rope1_Seg03 Rope1_Seg02
Rope1_Seg04 Rope1_Seg03
Rope1_Seg05 Rope1_Seg04
Rope1_Seg06 Rope1_Seg05
Rope1_Seg07 Rope1_Seg06
Rope1_Seg09 Rope1_Seg07
L_mid_hand01 Rope1_Seg09
L_mid_hand02 Rope1_Seg09
L_mid_hand03 Rope1_Seg09
null_rope02_connect R_mid_tent01
Rope2_Seg01 null_rope02_connect
Rope2_Seg02 Rope2_Seg01
Rope2_Seg03 Rope2_Seg02
Rope2_Seg04 Rope2_Seg03
Rope2_Seg05 Rope2_Seg04
Rope2_Seg06 Rope2_Seg05
Rope2_Seg07 Rope2_Seg06
Rope2_Seg09 Rope2_Seg07
R_mid_hand01 Rope2_Seg09
R_mid_hand02 Rope2_Seg09
R_mid_hand03 Rope2_Seg09
spine02 spine01
spine03 spine02
pelvis spine03
null_rope03_connect pelvis
null_rope04_connect pelvis
Rope3_Seg01 null_rope03_connect
Rope3_Seg02 Rope3_Seg01
Rope3_Seg03 Rope3_Seg02
Rope3_Seg04 Rope3_Seg03
Rope3_Seg05 Rope3_Seg04
Rope3_Seg06 Rope3_Seg05
Rope3_Seg07 Rope3_Seg06
Rope3_Seg08 Rope3_Seg07
Rope3_Seg09 Rope3_Seg08
R_rear_hand01 Rope3_Seg09
R_rear_hand02 Rope3_Seg09
R_rear_hand03 Rope3_Seg09
Rope4_Seg01 null_rope04_connect
Rope4_Seg02 Rope4_Seg01
Rope4_Seg03 Rope4_Seg02
Rope4_Seg04 Rope4_Seg03
Rope4_Seg05 Rope4_Seg04
Rope4_Seg06 Rope4_Seg05
Rope4_Seg07 Rope4_Seg06
Rope4_Seg08 Rope4_Seg07
Rope4_Seg09 Rope4_Seg08
L_rear_hand01 Rope4_Seg09
L_rear_hand02 Rope4_Seg09
L_rear_hand03 Rope4_Seg09
[BasePosition]
#SegmentName Tx, Ty, Tz, Rx, Ry, Rz, BoneLength
MASTER 0.000000 0.000000 0.000000 -90.000000 0.000000 0.000000 10.000000 
root 0.000000 0.000000 0.000000 0.000000 0.000000 0.000000 10.000000 
chest 0.000000 0.000000 0.000000 0.000000 0.000000 0.000000 10.000000 
L_mid_tent01 0.000000 0.000000 0.000000 0.000000 0.000000 0.000000 10.000000 
R_mid_tent01 0.000000 0.000000 0.000000 0.000000 0.000000 0.000000 10.000000 
spine01 0.000000 0.000000 0.000000 0.000000 0.000000 0.000000 10.000000 
Bip01_Neck 0.000000 0.000000 0.000000 0.000000 0.000000 0.000000 10.000000 
L_humerus 0.000000 0.000000 0.000000 0.000000 0.000000 0.000000 10.000000 
R_humerus 0.000000 0.000000 0.000000 0.000000 0.000000 0.000000 10.000000 
weapon_bone 0.000000 0.000000 0.000000 0.000000 0.000000 0.000000 10.000000 
Bip01_Head 0.000000 0.000000 0.000000 0.000000 0.000000 0.000000 10.000000 
eye_left_bone 0.000000 0.000000 0.000000 0.000000 0.000000 0.000000 10.000000 
eye_right_bone 0.000000 0.000000 0.000000 0.000000 0.000000 0.000000 10.000000 
L_forearm 0.000000 0.000000 0.000000 0.000000 0.000000 0.000000 10.000000 
L_front_hand 0.000000 0.000000 0.000000 0.000000 0.000000 0.000000 10.000000 
L_weapon_bone 0.000000 0.000000 0.000000 0.000000 0.000000 0.000000 10.000000 
L_front_hand01_01 0.000000 0.000000 0.000000 0.000000 0.000000 0.000000 10.000000 
L_front_hand02_01 0.000000 0.000000 0.000000 0.000000 0.000000 0.000000 10.000000 
L_front_hand03_01 0.000000 0.000000 0.000000 0.000000 0.000000 0.000000 10.000000 
L_front_hand01_02 0.000000 0.000000 0.000000 0.000000 0.000000 0.000000 10.000000 
L_front_hand02_02 0.000000 0.000000 0.000000 0.000000 0.000000 0.000000 10.000000 
L_front_hand03_02 0.000000 0.000000 0.000000 0.000000 0.000000 0.000000 10.000000 
R_forearm 0.000000 0.000000 0.000000 0.000000 0.000000 0.000000 10.000000 
R_front_hand 0.000000 0.000000 0.000000 0.000000 0.000000 0.000000 10.000000 
R_weapon_bone 0.000000 0.000000 0.000000 0.000000 0.000000 0.000000 10.000000 
R_front_hand01_01 0.000000 0.000000 0.000000 0.000000 0.000000 0.000000 10.000000 
R_front_hand02_01 0.000000 0.000000 0.000000 0.000000 0.000000 0.000000 10.000000 
R_front_hand03_01 0.000000 0.000000 0.000000 0.000000 0.000000 0.000000 10.000000 
R_front_hand01_02 0.000000 0.000000 0.000000 0.000000 0.000000 0.000000 10.000000 
R_front_hand02_02 0.000000 0.000000 0.000000 0.000000 0.000000 0.000000 10.000000 
R_front_hand03_02 0.000000 0.000000 0.000000 0.000000 0.000000 0.000000 10.000000 
null_rope01_connect 0.000000 0.000000 0.000000 0.000000 0.000000 0.000000 10.000000 
Rope1_Seg01 0.000000 0.000000 0.000000 0.000000 0.000000 0.000000 10.000000 
Rope1_Seg02 0.000000 0.000000 0.000000 0.000000 0.000000 0.000000 10.000000 
Rope1_Seg03 0.000000 0.000000 0.000000 0.000000 0.000000 0.000000 10.000000 
Rope1_Seg04 0.000000 0.000000 0.000000 0.000000 0.000000 0.000000 10.000000 
Rope1_Seg05 0.000000 0.000000 0.000000 0.000000 0.000000 0.000000 10.000000 
Rope1_Seg06 0.000000 0.000000 0.000000 0.000000 0.000000 0.000000 10.000000 
Rope1_Seg07 0.000000 0.000000 0.000000 0.000000 0.000000 0.000000 10.000000 
Rope1_Seg09 0.000000 0.000000 0.000000 0.000000 0.000000 0.000000 10.000000 
L_mid_hand01 0.000000 0.000000 0.000000 0.000000 0.000000 0.000000 10.000000 
L_mid_hand02 0.000000 0.000000 0.000000 0.000000 0.000000 0.000000 10.000000 
L_mid_hand03 0.000000 0.000000 0.000000 0.000000 0.000000 0.000000 10.000000 
null_rope02_connect 0.000000 0.000000 0.000000 0.000000 0.000000 0.000000 10.000000 
Rope2_Seg01 0.000000 0.000000 0.000000 0.000000 0.000000 0.000000 10.000000 
Rope2_Seg02 0.000000 0.000000 0.000000 0.000000 0.000000 0.000000 10.000000 
Rope2_Seg03 0.000000 0.000000 0.000000 0.000000 0.000000 0.000000 10.000000 
Rope2_Seg04 0.000000 0.000000 0.000000 0.000000 0.000000 0.000000 10.000000 
Rope2_Seg05 0.000000 0.000000 0.000000 0.000000 0.000000 0.000000 10.000000 
Rope2_Seg06 0.000000 0.000000 0.000000 0.000000 0.000000 0.000000 10.000000 
Rope2_Seg07 0.000000 0.000000 0.000000 0.000000 0.000000 0.000000 10.000000 
Rope2_Seg09 0.000000 0.000000 0.000000 0.000000 0.000000 0.000000 10.000000 
R_mid_hand01 0.000000 0.000000 0.000000 0.000000 0.000000 0.000000 10.000000 
R_mid_hand02 0.000000 0.000000 0.000000 0.000000 0.000000 0.000000 10.000000 
R_mid_hand03 0.000000 0.000000 0.000000 0.000000 0.000000 0.000000 10.000000 
spine02 0.000000 0.000000 0.000000 0.000000 0.000000 0.000000 10.000000 
spine03 0.000000 0.000000 0.000000 0.000000 0.000000 0.000000 10.000000 
pelvis 0.000000 0.000000 0.000000 0.000000 0.000000 0.000000 10.000000 
null_rope03_connect 0.000000 0.000000 0.000000 0.000000 0.000000 0.000000 10.000000 
null_rope04_connect 0.000000 0.000000 0.000000 0.000000 0.000000 0.000000 10.000000 
Rope3_Seg01 0.000000 0.000000 0.000000 0.000000 0.000000 0.000000 10.000000 
Rope3_Seg02 0.000000 0.000000 0.000000 0.000000 0.000000 0.000000 10.000000 
Rope3_Seg03 0.000000 0.000000 0.000000 0.000000 0.000000 0.000000 10.000000 
Rope3_Seg04 0.000000 0.000000 0.000000 0.000000 0.000000 0.000000 10.000000 
Rope3_Seg05 0.000000 0.000000 0.000000 0.000000 0.000000 0.000000 10.000000 
Rope3_Seg06 0.000000 0.000000 0.000000 0.000000 0.000000 0.000000 10.000000 
Rope3_Seg07 0.000000 0.000000 0.000000 0.000000 0.000000 0.000000 10.000000 
Rope3_Seg08 0.000000 0.000000 0.000000 0.000000 0.000000 0.000000 10.000000 
Rope3_Seg09 0.000000 0.000000 0.000000 0.000000 0.000000 0.000000 10.000000 
R_rear_hand01 0.000000 0.000000 0.000000 0.000000 0.000000 0.000000 10.000000 
R_rear_hand02 0.000000 0.000000 0.000000 0.000000 0.000000 0.000000 10.000000 
R_rear_hand03 0.000000 0.000000 0.000000 0.000000 0.000000 0.000000 10.000000 
Rope4_Seg01 0.000000 0.000000 0.000000 0.000000 0.000000 0.000000 10.000000 
Rope4_Seg02 0.000000 0.000000 0.000000 0.000000 0.000000 0.000000 10.000000 
Rope4_Seg03 0.000000 0.000000 0.000000 0.000000 0.000000 0.000000 10.000000 
Rope4_Seg04 0.000000 0.000000 0.000000 0.000000 0.000000 0.000000 10.000000 
Rope4_Seg05 0.000000 0.000000 0.000000 0.000000 0.000000 0.000000 10.000000 
Rope4_Seg06 0.000000 0.000000 0.000000 0.000000 0.000000 0.000000 10.000000 
Rope4_Seg07 0.000000 0.000000 0.000000 0.000000 0.000000 0.000000 10.000000 
Rope4_Seg08 0.000000 0.000000 0.000000 0.000000 0.000000 0.000000 10.000000 
Rope4_Seg09 0.000000 0.000000 0.000000 0.000000 0.000000 0.000000 10.000000 
L_rear_hand01 0.000000 0.000000 0.000000 0.000000 0.000000 0.000000 10.000000 
L_rear_hand02 0.000000 0.000000 0.000000 0.000000 0.000000 0.000000 10.000000 
L_rear_hand03 0.000000 0.000000 0.000000 0.000000 0.000000 0.000000 10.000000 
#Beginning of Data. Separated by tabs
#Fr	Tx	Ty	Tz	Rx	Ry	Rz	SF
[MASTER]
1 0.000000 0.000000 0.000000 0.001660 0.001660 0.001660 0.000000
2 0.000000 0.000000 0.000000 0.001660 0.001660 0.001660 0.000000
[root]
1 -16.502291 -62.822117 1502.657593 -91.629700 -27.676081 -90.148109 1504.060791
2 -16.502291 -62.822117 1502.657593 -91.629707 -27.676086 -90.148125 1504.060791
[chest]
1 -84.512650 -34.090519 0.000000 -1.888052 0.943089 -178.206696 91.129311
2 -84.512650 -34.090519 0.000000 -2.036480 0.845448 -179.373627 91.129311
[L_mid_tent01]
1 27.299500 22.177483 -249.917984 -27.428177 15.105187 24.797640 252.380859
2 27.299500 22.177483 -249.917984 -26.344913 17.251764 27.764141 252.380859
[R_mid_tent01]
1 23.228794 24.509907 226.238495 -178.681610 -15.229529 38.134892 228.744751
2 23.228794 24.509907 226.238495 -178.973236 -17.693787 40.636551 228.744751
[spine01]
1 -0.361383 -0.195265 0.000000 0.001869 0.001420 15.534141 0.410763
2 -0.361383 -0.195265 0.000000 0.001870 0.001418 15.664430 0.410763
[Bip01_Neck]
1 165.484543 71.581718 0.000119 175.896118 1.177290 24.871183 180.302734
2 165.484543 71.581718 0.000119 175.896118 1.177290 24.871185 180.302734
[L_humerus]
1 -13.983130 -135.272980 -120.471481 156.317398 70.210045 -112.010254 181.680161
2 -13.983130 -135.272980 -120.471481 156.029053 69.023438 -112.114349 181.680161
[R_humerus]
1 -13.983309 -135.273102 125.287651 -172.382248 -66.903786 -92.554047 184.909012
2 -13.983309 -135.273102 125.287651 -170.618408 -60.321568 -97.166473 184.909012
[weapon_bone]
1 235.964890 -300.705902 0.000000 0.000000 -89.951546 -128.212341 382.234833
2 235.964890 -300.705902 0.000000 0.000000 -89.951546 -128.212341 382.234833
[Bip01_Head]
1 213.443909 185.715820 11.777685 4.962488 2.797847 -43.898735 283.173767
2 209.816956 191.570435 12.709427 4.545750 2.911868 -42.497498 284.401001
[eye_left_bone]
1 -24.626970 125.451866 -64.772606 0.000000 -90.000000 -99.840431 143.318359
2 -24.626970 125.451866 -64.772606 0.000000 -90.000000 -99.840431 143.318359
[eye_right_bone]
1 -24.626970 125.451866 64.327362 0.000000 -90.000000 80.159401 143.117676
2 -24.626970 125.451866 64.327362 0.000000 -89.972023 80.159386 143.117676
[L_forearm]
1 322.776093 0.000000 -0.000119 0.000340 0.002322 -73.348732 322.776093
2 322.776093 0.000000 -0.000119 0.000340 0.002323 -73.361069 322.776093
[L_front_hand]
1 241.149185 -0.042021 -3.300071 -178.667953 -1.835447 -27.422323 241.171753
2 241.149185 -0.042021 -3.300071 -178.744568 -1.891031 -25.100485 241.171753
[L_weapon_bone]
1 156.183838 0.000000 0.000000 0.001660 0.001660 0.001660 156.183838
2 156.183838 0.000000 0.000000 0.001661 0.001659 0.080787 156.183838
[L_front_hand01_01]
1 86.095154 20.947098 -0.655860 -0.366594 -0.477154 75.385582 88.609184
2 86.095154 20.947098 -0.655860 -0.366594 -0.477154 75.385574 88.609184
[L_front_hand02_01]
1 86.935165 -11.437475 24.513514 154.403519 -59.888931 -61.371998 91.046425
2 86.935165 -11.437475 24.513514 154.403519 -59.888931 -61.371990 91.046425
[L_front_hand03_01]
1 86.637497 -14.123976 -20.424902 -153.913864 58.118130 -62.702885 90.126129
2 86.637497 -14.123976 -20.424902 -153.913849 58.118107 -62.702850 90.126129
[L_front_hand01_02]
1 71.020905 -0.000179 0.000030 0.000334 -0.002323 -106.379517 71.020905
2 71.020905 -0.000179 0.000030 0.000185 0.002340 -80.973679 71.020905
[L_front_hand02_02]
1 71.020927 -0.000119 0.000060 0.000334 -0.002323 -106.379517 71.020927
2 71.020927 -0.000119 0.000060 0.000185 0.002340 -80.973679 71.020927
[L_front_hand03_02]
1 71.020905 -0.000060 0.000060 0.000334 -0.002323 -106.379517 71.020905
2 71.020905 -0.000060 0.000060 0.000185 0.002340 -80.973679 71.020905
[R_forearm]
1 322.776428 -0.000060 0.000030 0.167080 -0.129903 -53.527325 322.776428
2 322.776428 -0.000060 0.000030 0.170429 -0.127290 -54.542805 322.776428
[R_front_hand]
1 238.847015 -0.006795 2.210259 -1.533841 0.794671 -51.443130 238.857239
2 238.847015 -0.006795 2.210259 -1.474103 0.899823 -47.396942 238.857239
[R_weapon_bone]
1 155.664093 0.002503 -0.000030 0.003487 0.001180 -90.988930 155.664078
2 155.664093 0.002503 -0.000030 0.003486 0.001181 -91.030525 155.664078
[R_front_hand01_01]
1 87.624611 14.231146 22.918642 -154.633499 -59.950615 61.746044 91.683487
2 87.624611 14.231146 22.918642 -154.633484 -59.950607 61.746033 91.683487
[R_front_hand02_01]
1 89.356956 14.367283 -19.491137 154.602676 58.302864 63.744400 92.579636
2 89.356956 14.367283 -19.491137 154.602661 58.302856 63.744389 92.579636
[R_front_hand03_01]
1 87.286232 -22.307278 -0.143439 0.162155 -0.423168 -75.767921 90.091743
2 87.286232 -22.307278 -0.143439 0.162155 -0.423168 -75.767921 90.091743
[R_front_hand01_02]
1 71.020905 0.000060 0.000119 0.002323 -0.000334 106.381531 71.020905
2 71.020905 0.000060 0.000119 0.002340 0.000185 80.971527 71.020905
[R_front_hand02_02]
1 71.020844 -0.000030 -0.000119 0.002323 -0.000334 106.381531 71.020836
2 71.020844 -0.000030 -0.000119 0.002340 0.000185 80.971527 71.020836
[R_front_hand03_02]
1 71.020905 0.000000 0.000030 0.002323 -0.000334 106.381531 71.020905
2 71.020905 0.000000 0.000030 0.002340 0.000185 80.971527 71.020905
[null_rope01_connect]
1 328.732483 0.000000 -0.000238 -150.340378 -57.271729 -120.512474 328.732483
2 328.732483 0.000000 -0.000238 -149.121246 -57.152023 -125.048485 328.732483
[Rope1_Seg01]
1 0.000000 0.000000 0.000000 13.161265 8.708003 -107.824867 0.000000
2 0.000000 0.000000 0.000000 11.055283 8.288797 -106.455009 0.000000
[Rope1_Seg02]
1 139.999863 -0.000179 0.000000 -7.631766 0.366686 4.355030 139.999863
2 139.999863 -0.000179 0.000000 -8.005645 1.298205 3.570514 139.999863
[Rope1_Seg03]
1 139.999924 0.000060 -0.000060 -5.518404 -0.250962 4.317566 139.999924
2 139.999924 0.000060 -0.000060 -6.692791 0.722212 3.928568 139.999924
[Rope1_Seg04]
1 139.999924 -0.000060 -0.000119 -1.760258 -2.798679 4.627499 139.999924
2 139.999924 -0.000060 -0.000119 -3.232124 -2.040921 5.014178 139.999924
[Rope1_Seg05]
1 139.999832 0.000119 -0.000060 -3.805178 0.125271 3.719360 139.999832
2 139.999832 0.000119 -0.000060 -6.120679 2.039936 3.459706 139.999832
[Rope1_Seg06]
1 139.999954 0.000119 -0.000060 -9.082906 5.539072 2.959304 139.999954
2 139.999954 0.000119 -0.000060 -14.334512 8.710488 2.348988 139.999954
[Rope1_Seg07]
1 139.999985 0.000060 0.000000 -9.637742 5.380244 3.523501 139.999985
2 139.999985 0.000060 0.000000 -13.815727 6.495130 4.155320 139.999985
[Rope1_Seg09]
1 121.602913 0.000119 -0.000089 -89.793175 -1.359789 0.847147 121.602913
2 121.602913 0.000119 -0.000089 -89.793175 -1.359789 0.847147 121.602913
[L_mid_hand01]
1 103.859421 1.038730 8.195221 107.696701 -35.360653 -10.993999 104.187431
2 103.859421 1.038730 8.195221 107.692451 -35.321182 -10.981558 104.187431
[L_mid_hand02]
1 105.572853 -4.139662 -10.864139 -144.098129 28.341108 -32.660099 106.211075
2 105.572853 -4.139662 -10.864139 -144.079987 28.315041 -32.618061 106.211075
[L_mid_hand03]
1 104.641464 17.579376 -3.913581 -15.363204 10.906515 38.448509 106.179977
2 104.641464 17.579376 -3.913581 -15.375065 10.893202 38.406624 106.179977
[null_rope02_connect]
1 328.732849 0.000179 -0.000119 -100.896194 75.922501 -0.105626 328.732849
2 328.732849 0.000179 -0.000119 -102.539413 73.510902 0.758242 328.732849
[Rope2_Seg01]
1 0.000095 0.000153 0.000000 64.945595 -5.917377 -64.546875 0.000180
2 0.000095 0.000153 0.000002 67.489868 -5.811667 -66.544128 0.000180
[Rope2_Seg02]
1 139.999741 -0.000060 -0.000119 9.957197 -2.018832 -6.020770 139.999756
2 139.999741 -0.000060 -0.000119 9.509842 -0.467185 -6.427640 139.999756
[Rope2_Seg03]
1 140.000107 0.000030 0.000000 9.292916 -2.872635 -5.341040 140.000107
2 140.000107 0.000030 0.000000 10.421430 -1.490055 -6.325654 140.000107
[Rope2_Seg04]
1 139.999802 0.000000 -0.000060 9.809682 -3.267159 -5.812919 139.999802
2 139.999802 0.000000 -0.000060 12.342115 -1.977499 -7.226661 139.999802
[Rope2_Seg05]
1 139.999985 -0.000060 0.000119 5.856423 -3.479020 -3.149342 139.999985
2 139.999985 -0.000060 0.000119 7.451315 -3.316002 -3.735215 139.999985
[Rope2_Seg06]
1 139.999893 -0.000030 -0.000119 1.293593 -3.425051 0.314313 139.999893
2 139.999893 -0.000030 -0.000119 1.470809 -4.316189 0.678781 139.999893
[Rope2_Seg07]
1 139.999893 0.000060 -0.000060 -0.485785 -3.719968 2.056254 139.999893
2 139.999893 0.000060 -0.000060 0.963900 -5.159804 1.280145 139.999893
[Rope2_Seg09]
1 121.338966 0.000089 -0.000060 33.793236 -1.359788 -0.847141 121.338966
2 121.338966 0.000089 -0.000060 33.793236 -1.359788 -0.847141 121.338966
[R_mid_hand01]
1 104.680779 11.144459 -10.335981 -40.221195 27.676025 31.505928 105.778534
2 104.680779 11.144459 -10.335981 -40.237152 27.650444 31.470890 105.778534
[R_mid_hand02]
1 104.070427 2.443552 8.231699 72.143021 -36.028893 11.263138 104.424065
2 104.070427 2.443552 8.231699 72.147308 -35.989326 11.250515 104.424065
[R_mid_hand03]
1 106.028137 -11.221827 -5.996406 -168.530167 10.961195 -40.437431 106.788818
2 106.028137 -11.221827 -5.996406 -168.524445 10.952297 -40.394955 106.788818
[spine02]
1 129.756927 0.001550 0.000119 -0.245322 -4.052060 -4.355543 129.756927
2 129.756927 0.001550 0.000119 -0.292621 -4.051500 -3.717622 129.756927
[spine03]
1 78.613739 0.087280 -4.898795 0.369658 4.260734 -4.885723 78.766266
2 78.623772 0.085535 -4.800820 0.340060 4.281001 -5.258343 78.770256
[pelvis]
1 169.435242 0.051022 0.000000 -0.010008 -0.191417 -1.897551 169.435257
2 169.435242 0.051022 0.000000 -0.146771 -0.263667 -1.584894 169.435257
[null_rope03_connect]
1 -1.257226 -2.466202 137.391083 -143.543640 -88.739174 -103.173256 137.418976
2 -1.257226 -2.466202 137.391083 -147.505554 -88.568787 -99.926071 137.418976
[null_rope04_connect]
1 -1.259640 -2.480268 -137.844437 -143.543640 -88.739174 -103.173256 137.872513
2 -1.259640 -2.480268 -137.844437 -147.505554 -88.568787 -99.926071 137.872513
[Rope3_Seg01]
1 0.000000 0.000000 0.000000 -135.470566 -21.482777 -66.117683 0.000000
2 0.000000 0.000000 0.000000 -135.825409 -22.198875 -65.666367 0.000000
[Rope3_Seg02]
1 139.999924 -0.000119 0.000060 0.729182 0.840044 6.004191 139.999924
2 139.999924 -0.000119 0.000060 0.340405 2.220219 4.703926 139.999924
[Rope3_Seg03]
1 139.999924 -0.000119 0.000119 0.431869 0.118690 4.404877 139.999924
2 139.999924 -0.000119 0.000119 0.250372 1.206461 3.412577 139.999924
[Rope3_Seg04]
1 139.999924 0.000119 0.000000 0.176583 0.203708 3.756425 139.999924
2 139.999924 0.000119 0.000000 0.091282 1.038350 2.792246 139.999924
[Rope3_Seg05]
1 139.999924 -0.000238 0.000060 0.255437 2.941887 4.481731 139.999924
2 139.999924 -0.000238 0.000060 0.180883 3.297047 3.302513 139.999924
[Rope3_Seg06]
1 139.999893 -0.000119 -0.000060 0.534131 2.885390 3.454004 139.999893
2 139.999893 -0.000119 -0.000060 0.532825 3.417287 2.872811 139.999893
[Rope3_Seg07]
1 139.999771 0.000060 -0.000119 0.540419 1.524820 2.195196 139.999771
2 139.999771 0.000060 -0.000119 0.596470 2.078931 1.971415 139.999771
[Rope3_Seg08]
1 139.999985 -0.000060 0.000000 0.553254 1.003825 1.421076 139.999985
2 139.999985 -0.000060 0.000000 0.606693 1.419158 1.324878 139.999985
[Rope3_Seg09]
1 90.185997 -0.000179 -0.000060 89.793228 -1.359877 -0.847183 90.185997
2 90.185997 -0.000179 -0.000060 89.793228 -1.359877 -0.847183 90.185997
[R_rear_hand01]
1 103.366196 -6.073594 -10.757982 -162.569504 17.730598 -33.537331 104.101845
2 103.366196 -6.073594 -10.757982 -162.556732 17.720921 -33.494339 104.101845
[R_rear_hand02]
1 100.509819 12.039542 -7.992327 -33.217487 21.209164 31.940151 101.543350
2 100.509819 12.039542 -7.992327 -33.230167 21.192158 31.909763 101.543350
[R_rear_hand03]
1 101.539970 5.215704 5.435467 83.107849 -34.369583 7.766671 101.819031
2 101.539970 5.215704 5.435467 83.107979 -34.332909 7.763650 101.819031
[Rope4_Seg01]
1 0.000000 0.000000 0.000000 48.724384 -13.866781 -110.238022 0.000000
2 0.000000 0.000000 0.000000 48.684586 -13.900152 -109.981270 0.000000
[Rope4_Seg02]
1 139.999985 0.000060 0.000119 0.511978 4.095695 4.435485 139.999985
2 139.999985 0.000060 0.000119 0.781513 2.230838 5.707967 139.999985
[Rope4_Seg03]
1 139.999924 0.000000 -0.000238 0.325726 3.850237 4.482244 139.999924
2 139.999924 0.000000 -0.000238 0.446910 2.173951 5.453461 139.999924
[Rope4_Seg04]
1 139.999985 0.000000 0.000119 0.107887 3.556607 4.216771 139.999985
2 139.999985 0.000000 0.000119 0.151750 1.990187 4.932468 139.999985
[Rope4_Seg05]
1 139.999802 -0.000060 -0.000119 0.178605 0.799295 -0.867555 139.999802
2 139.999802 -0.000060 -0.000119 0.076568 0.278419 0.298591 139.999802
[Rope4_Seg06]
1 139.999924 0.000000 0.000060 0.264273 -0.285192 -2.165340 139.999924
2 139.999924 0.000000 0.000060 0.149216 -0.357684 -1.319344 139.999924
[Rope4_Seg07]
1 139.999802 0.000000 0.000000 0.188166 0.254955 -0.645808 139.999802
2 139.999802 0.000000 0.000000 0.140089 0.056193 -0.107077 139.999802
[Rope4_Seg08]
1 139.999924 0.000000 0.000119 -1.418405 0.169684 -0.410965 139.999924
2 139.999924 0.000000 0.000119 -1.447487 0.040433 -0.063149 139.999924
[Rope4_Seg09]
1 90.185791 0.000060 0.000060 -135.617828 2.228885 0.850567 90.185791
2 90.185791 0.000060 0.000060 -135.617828 2.228885 0.850567 90.185791
[L_rear_hand01]
1 101.696655 -8.392275 -7.654577 -33.356995 -20.971172 148.447327 102.329041
2 101.696655 -8.392275 -7.654577 -33.370445 -20.952604 148.482803 102.329041
[L_rear_hand02]
1 102.726799 -1.568258 5.773216 83.138916 33.939434 172.292404 102.900848
2 102.726799 -1.568258 5.773216 83.147171 33.899792 172.301804 102.900848
[L_rear_hand03]
1 104.552910 9.721220 -10.420293 -162.437759 -17.601923 -146.899811 105.519653
2 104.552910 9.721220 -10.420293 -162.423782 -17.587420 -146.942322 105.519653
